<?xml version="1.0" encoding="UTF-8" standalone="no"?>
<svg
   width="64"
   height="64"
   version="1"
   id="svg25"
   sodipodi:docname="presentwindows-64px.svg"
   inkscape:version="1.1.2 (1:1.1+202202050950+0a00cf5339)"
   xmlns:inkscape="http://www.inkscape.org/namespaces/inkscape"
   xmlns:sodipodi="http://sodipodi.sourceforge.net/DTD/sodipodi-0.dtd"
   xmlns="http://www.w3.org/2000/svg"
   xmlns:svg="http://www.w3.org/2000/svg">
  <sodipodi:namedview
     id="namedview27"
     pagecolor="#ffffff"
     bordercolor="#666666"
     borderopacity="1.0"
     inkscape:pageshadow="2"
     inkscape:pageopacity="0.0"
     inkscape:pagecheckerboard="0"
     showgrid="true"
     inkscape:zoom="5.8004853"
     inkscape:cx="29.049294"
     inkscape:cy="44.910035"
     inkscape:window-width="1440"
     inkscape:window-height="685"
     inkscape:window-x="0"
     inkscape:window-y="0"
     inkscape:window-maximized="1"
     inkscape:current-layer="svg25"
     inkscape:snap-bbox="true"
     inkscape:bbox-nodes="true"
     width="64px">
    <inkscape:grid
       type="xygrid"
       id="grid844" />
  </sodipodi:namedview>
  <defs
     id="defs3">
    <style
       id="current-color-scheme"
       type="text/css">.ColorScheme-Text {
            color:#31363b;
        }
        .ColorScheme-Background {
            color:#eff0f1;
        }
        .ColorScheme-Highlight {
            color:#3daee9;
        }</style>
  </defs>
  <rect
     style="fill:#575757;fill-opacity:1"
     id="rect827"
     width="42"
     height="35"
     x="10.000008"
     y="11.999999"
     rx="2.5"
     ry="2.5" />
  <rect
     style="fill:currentColor"
     id="rect829"
     width="35"
     height="27"
     x="23.000008"
     y="25"
     rx="2.5"
     ry="2.5"
     class="ColorScheme-Highlight" />
  <path
     id="rect1569"
     style="opacity:0.1;fill:#ffffff;fill-opacity:1"
     d="M 12.5,12 C 11.115,12 10,13.115 10,14.5 v 1 C 10,14.115 11.115,13 12.5,13 h 37 c 1.385,0 2.5,1.115 2.5,2.5 v -1 C 52,13.115 50.885,12 49.5,12 Z" />
  <path
     id="rect1970"
     d="M 25.5,25 C 24.115,25 23,26.115 23,27.5 v 1 C 23,27.115 24.115,26 25.5,26 h 30 c 1.385,0 2.5,1.115 2.5,2.5 v -1 C 58,26.115 56.885,25 55.5,25 Z"
     style="opacity:0.1;fill:#ffffff;fill-opacity:1" />
</svg>
