<?xml version="1.0" encoding="UTF-8" standalone="no"?>
<svg
   width="32"
   height="32"
   version="1"
   id="svg25"
   sodipodi:docname="presentwindows-32px.svg"
   inkscape:version="1.1.2 (1:1.1+202202050950+0a00cf5339)"
   xmlns:inkscape="http://www.inkscape.org/namespaces/inkscape"
   xmlns:sodipodi="http://sodipodi.sourceforge.net/DTD/sodipodi-0.dtd"
   xmlns="http://www.w3.org/2000/svg"
   xmlns:svg="http://www.w3.org/2000/svg">
  <sodipodi:namedview
     id="namedview27"
     pagecolor="#ffffff"
     bordercolor="#666666"
     borderopacity="1.0"
     inkscape:pageshadow="2"
     inkscape:pageopacity="0.0"
     inkscape:pagecheckerboard="0"
     showgrid="true"
     inkscape:zoom="11.600971"
     inkscape:cx="20.041426"
     inkscape:cy="14.438447"
     inkscape:window-width="1440"
     inkscape:window-height="693"
     inkscape:window-x="0"
     inkscape:window-y="0"
     inkscape:window-maximized="1"
     inkscape:current-layer="svg25"
     inkscape:snap-bbox="true"
     inkscape:bbox-nodes="true">
    <inkscape:grid
       type="xygrid"
       id="grid844" />
  </sodipodi:namedview>
  <defs
     id="defs3">
    <style
       id="current-color-scheme"
       type="text/css">.ColorScheme-Text {
            color:#31363b;
        }
        .ColorScheme-Background {
            color:#eff0f1;
        }
        .ColorScheme-Highlight {
            color:#3daee9;
        }</style>
  </defs>
  <rect
     style="opacity:1;fill:#575757;fill-opacity:1;stroke-width:0.857143"
     id="rect1107"
     width="20"
     height="17"
     x="5"
     y="7"
     rx="2"
     ry="2" />
  <rect
     style="opacity:1;fill:currentColor"
     id="rect1189"
     width="17"
     height="13"
     x="11"
     y="13"
     rx="2"
     ry="2"
     class="ColorScheme-Highlight" />
  <path
     id="rect12522"
     style="opacity:0.1;fill:#ffffff;fill-opacity:1"
     d="M 7,7 C 5.892,7 5,7.892 5,9 v 1 C 5,8.892 5.892,8 7,8 h 16 c 1.108,0 2,0.892 2,2 V 9 C 25,7.892 24.108,7 23,7 Z m 6,6 c -1.108,0 -2,0.892 -2,2 v 1 c 0,-1.108 0.892,-2 2,-2 h 13 c 1.108,0 2,0.892 2,2 v -1 c 0,-1.108 -0.892,-2 -2,-2 z" />
</svg>
