<?xml version="1.0" encoding="UTF-8" standalone="no"?>
<svg
   width="16"
   height="16"
   version="1"
   id="svg25"
   sodipodi:docname="presentwindows-16px.svg"
   inkscape:version="1.1.2 (1:1.1+202202050950+0a00cf5339)"
   xmlns:inkscape="http://www.inkscape.org/namespaces/inkscape"
   xmlns:sodipodi="http://sodipodi.sourceforge.net/DTD/sodipodi-0.dtd"
   xmlns="http://www.w3.org/2000/svg"
   xmlns:svg="http://www.w3.org/2000/svg">
  <sodipodi:namedview
     id="namedview27"
     pagecolor="#ffffff"
     bordercolor="#666666"
     borderopacity="1.0"
     inkscape:pageshadow="2"
     inkscape:pageopacity="0.0"
     inkscape:pagecheckerboard="0"
     showgrid="true"
     inkscape:zoom="23.201941"
     inkscape:cx="7.0468242"
     inkscape:cy="7.8872712"
     inkscape:window-width="1440"
     inkscape:window-height="685"
     inkscape:window-x="0"
     inkscape:window-y="0"
     inkscape:window-maximized="1"
     inkscape:current-layer="svg25"
     inkscape:snap-bbox="true"
     inkscape:bbox-nodes="true"
     width="16px">
    <inkscape:grid
       type="xygrid"
       id="grid844" />
  </sodipodi:namedview>
  <defs
     id="defs3">
    <style
       id="current-color-scheme"
       type="text/css">.ColorScheme-Text {
            color:#31363b;
        }
        .ColorScheme-Background {
            color:#eff0f1;
        }
        .ColorScheme-Highlight {
            color:#3daee9;
        }</style>
  </defs>
  <rect
     style="opacity:0.2;fill:#000000;fill-opacity:1"
     id="rect826"
     width="14"
     height="12"
     x="0"
     y="1.5"
     rx="1.3913044"
     ry="1.3913044" />
  <rect
     style="opacity:0.2;fill:#000000;fill-opacity:1"
     id="rect828"
     width="12"
     height="9"
     x="4"
     y="5.4999995"
     rx="1.3913044"
     ry="1.3913044" />
  <rect
     style="opacity:1;fill:#575757;fill-opacity:1"
     id="rect1223"
     width="14"
     height="12"
     x="0"
     y="1"
     rx="1.3913044"
     ry="1.3913044" />
  <rect
     style="opacity:1;fill:currentColor"
     id="rect1227"
     width="12"
     height="9"
     x="4"
     y="5"
     rx="1.3913044"
     ry="1.3913044"
     class="ColorScheme-Highlight" />
  <path
     id="rect2375"
     style="opacity:0.1;fill:#ffffff;fill-opacity:1"
     d="M 1.390625 1 C 0.61984238 1 0 1.6198424 0 2.390625 L 0 2.890625 C 0 2.1198424 0.61984238 1.5 1.390625 1.5 L 12.609375 1.5 C 13.380158 1.5 14 2.1198424 14 2.890625 L 14 2.390625 C 14 1.6198424 13.380158 1 12.609375 1 L 1.390625 1 z " />
  <path
     id="rect2416"
     style="fill:#ffffff;fill-opacity:1;opacity:0.1"
     class="ColorScheme-Highlight"
     d="M 5.390625 5 C 4.6198424 5 4 5.6198424 4 6.390625 L 4 6.890625 C 4 6.1198424 4.6198424 5.5 5.390625 5.5 L 14.609375 5.5 C 15.380158 5.5 16 6.1198424 16 6.890625 L 16 6.390625 C 16 5.6198424 15.380158 5 14.609375 5 L 5.390625 5 z " />
</svg>
